<svg width="210" height="210" viewBox="0 0 210 210" fill="none" xmlns="http://www.w3.org/2000/svg">
<path d="M105 0C162.99 0 210 47.0101 210 105C210 162.99 162.99 210 105 210C47.0101 210 0 162.99 0 105C0 47.0101 47.0101 0 105 0ZM140.376 28.0049C129.86 28.0049 119.18 29.5695 108.349 32.6641C97.5908 35.6029 87.1281 39.7909 76.9639 45.2168V45.2158C66.776 50.5191 57.2797 56.8024 48.4814 64.0645L48.4639 64.0801C28.5027 80.7144 17.4326 98.091 17.4326 116.235C17.4327 123.97 19.8433 130.664 24.9873 135.808L25.0459 135.866L25.1064 135.924C30.4926 140.962 37.7522 143.159 46.1836 143.159C53.6983 143.159 60.864 141.501 67.625 138.203L67.626 138.204C74.3761 134.976 80.456 130.649 85.8535 125.252L85.8857 125.22L85.917 125.187C86.7411 124.332 87.5309 123.475 88.2871 122.618C88.2822 122.722 88.2793 122.827 88.2793 122.934C88.2793 124.05 88.5718 125.459 89.5781 126.717C90.5721 127.959 91.854 128.544 92.8789 128.8L93.4766 128.949H94.0918C96.6476 128.949 99.892 128.726 103.76 128.312C103.92 128.294 104.082 128.274 104.244 128.256C101.737 131.353 99.2766 134.435 96.8623 137.502L96.8574 137.508L96.8535 137.514C91.948 143.782 87.3109 149.918 82.9434 155.924L82.9189 155.957L82.8965 155.989C78.0591 162.871 74.3579 168.509 71.8467 172.859C70.594 175.029 69.584 176.97 68.873 178.643C68.2297 180.156 67.5732 182.021 67.5732 183.834C67.5732 186.358 68.8423 188.568 71.0332 189.836C72.8083 190.864 74.8265 191.067 76.4307 191.067C81.0435 191.067 85.248 189.775 88.75 187.003L93.8857 184.251C95.397 183.558 96.7611 182.852 97.8223 182.129C98.3602 181.762 99.0193 181.258 99.5957 180.604C100.089 180.043 101.122 178.699 101.122 176.729C101.122 174.846 100.164 173.424 99.1484 172.593C98.7739 172.286 98.3917 172.058 98.0391 171.885C98.1863 171.642 98.34 171.392 98.499 171.134C101.075 166.96 105 161.222 110.32 153.882L110.34 153.854C114.375 148.205 118.138 143.031 121.628 138.332C124.857 134.147 127.819 130.336 130.514 126.898C131.335 126.768 132.511 126.637 134.088 126.513H138.143C139.632 126.513 141.345 126.575 143.291 126.705L143.33 126.707C145.659 126.844 147.534 126.919 148.901 126.919H151.135C153.934 126.919 156.613 126.685 158.762 125.914C159.862 125.519 161.158 124.867 162.221 123.723C163.387 122.467 164.052 120.845 164.052 119.077C164.052 117.663 163.559 116.297 162.619 115.201C161.761 114.201 160.734 113.656 159.95 113.352C158.46 112.772 156.794 112.656 155.397 112.656H152.999L152.653 112.828C152.331 112.843 151.882 112.856 151.285 112.857C149.468 112.722 147.047 112.589 144.044 112.458L143.999 112.456L141.886 112.383C148.403 103.791 153.784 96.5812 158.021 90.7559C163.365 83.4068 167.005 78.2602 168.866 75.4072C174.395 67.4579 177.652 59.7622 177.652 52.4932C177.652 48.5234 176.735 44.8121 174.747 41.5293C172.766 38.2583 169.885 35.6813 166.36 33.7139L166.359 33.7148C159.512 29.7588 150.714 28.0049 140.376 28.0049ZM139.36 41.8623C145.994 41.8623 150.091 43.0069 152.402 44.5625C154.362 45.8814 155.473 47.7718 155.473 51.0723C155.473 55.5809 152.971 62.235 146.624 71.3584C138.383 82.9766 131.699 92.3623 126.568 99.5176L126.55 99.543L126.532 99.5693C122.595 105.209 119.605 109.426 117.549 112.25H109.609L109.496 112.255C106.55 112.389 104.267 112.453 102.617 112.453H99.7754C97.7912 112.453 95.9953 113.226 94.4873 114.186C96.9096 109.989 98.2793 105.791 98.2793 101.619C98.2793 99.0266 97.6197 96.3738 95.791 94.1934C93.9715 92.024 91.4822 90.9038 88.9463 90.416L82.168 89.1123L83.042 95.959C83.5766 100.147 81.3915 106.431 74.0303 115.243C66.6645 123.872 59.7429 127.761 53.3213 128.3C46.3096 128.734 42.0578 127.626 39.6699 125.948C37.5848 124.483 36.1621 122.039 36.1621 117.453C36.1621 112.087 38.2601 105.493 43.1387 97.5332L43.1475 97.5176L43.1572 97.5029C47.9785 89.5097 54.5693 81.9292 63.0146 74.7832L63.0205 74.7773C69.9301 68.9107 77.7879 63.4701 86.6113 58.4658L86.6221 58.46L86.6318 58.4541C95.5524 53.3379 104.575 49.2877 113.699 46.2881C122.899 43.3078 131.444 41.8623 139.36 41.8623Z" fill="#E2203D"/>
</svg>
